<?xml version="1.0" encoding="utf-8"?>
<!-- Generator: Adobe Illustrator 16.0.1, SVG Export Plug-In . SVG Version: 6.00 Build 0)  -->
<!DOCTYPE svg PUBLIC "-//W3C//DTD SVG 1.1//EN" "http://www.w3.org/Graphics/SVG/1.1/DTD/svg11.dtd">
<svg version="1.1" id="图层_1" xmlns="http://www.w3.org/2000/svg" xmlns:xlink="http://www.w3.org/1999/xlink" x="0px" y="0px"
	 width="16px" height="16px" viewBox="0 0 16 16" enable-background="new 0 0 16 16" xml:space="preserve">
<circle fill="#FFFFFF" stroke="#DCDCDC" stroke-width="0.25" stroke-miterlimit="10" cx="5.126" cy="5.126" r="2"/>
<g>
	<path fill="#FFFFFF" stroke="#DCDCDC" stroke-width="0.25" stroke-miterlimit="10" d="M9.326,5.551H8.193
		c-0.234,0-0.425-0.19-0.425-0.425c0-0.234,0.19-0.425,0.425-0.425h1.133c0.235,0,0.426,0.19,0.426,0.425
		C9.752,5.361,9.562,5.551,9.326,5.551z"/>
</g>
<g>
	<path fill="#FFFFFF" stroke="#DCDCDC" stroke-width="0.25" stroke-miterlimit="10" d="M7.293,3.381c-0.108,0-0.216-0.042-0.3-0.125
		c-0.166-0.166-0.166-0.434,0-0.601l0.801-0.801c0.166-0.167,0.435-0.167,0.602,0c0.166,0.166,0.166,0.436,0,0.602l-0.801,0.8
		C7.511,3.339,7.403,3.381,7.293,3.381z"/>
</g>
<g>
	<path fill="#FFFFFF" stroke="#DCDCDC" stroke-width="0.25" stroke-miterlimit="10" d="M5.126,2.484
		c-0.234,0-0.425-0.19-0.425-0.425V0.926c0-0.234,0.19-0.425,0.425-0.425c0.235,0,0.425,0.19,0.425,0.425v1.133
		C5.551,2.293,5.361,2.484,5.126,2.484z"/>
</g>
<g>
	<path fill="#FFFFFF" stroke="#DCDCDC" stroke-width="0.25" stroke-miterlimit="10" d="M2.959,3.385
		c-0.109,0-0.218-0.042-0.301-0.124L1.856,2.458c-0.167-0.167-0.167-0.435,0-0.602c0.166-0.167,0.436-0.167,0.602,0L3.26,2.659
		c0.166,0.166,0.166,0.435,0,0.602C3.176,3.343,3.068,3.385,2.959,3.385z"/>
</g>
<g>
	<path fill="#FFFFFF" stroke="#DCDCDC" stroke-width="0.25" stroke-miterlimit="10" d="M0.927,5.551
		c-0.234,0-0.425-0.19-0.425-0.425c0-0.233,0.19-0.426,0.425-0.426H2.06h0.001c0.234,0,0.425,0.191,0.425,0.425
		s-0.19,0.426-0.424,0.426H0.927L0.927,5.551z"/>
</g>
<g>
	<path fill="#FFFFFF" stroke="#DCDCDC" stroke-width="0.25" stroke-miterlimit="10" d="M2.158,8.521
		c-0.109,0-0.218-0.042-0.301-0.125c-0.166-0.166-0.166-0.436,0-0.602l0.802-0.802c0.165-0.166,0.434-0.166,0.602,0
		c0.166,0.166,0.166,0.435,0,0.602L2.458,8.396C2.376,8.478,2.267,8.521,2.158,8.521z"/>
</g>
<g>
	<path fill="#FFFFFF" stroke="#DCDCDC" stroke-width="0.25" stroke-miterlimit="10" d="M5.129,9.749
		c-0.235,0-0.425-0.19-0.425-0.424V8.19c0-0.233,0.19-0.425,0.425-0.425c0.233,0,0.424,0.19,0.424,0.425v1.135
		C5.553,9.559,5.362,9.749,5.129,9.749z"/>
</g>
<g>
	<path fill="#FFFFFF" stroke="#DCDCDC" stroke-width="0.25" stroke-miterlimit="10" d="M14.167,15.688
		c-0.394,0-0.784-0.149-1.083-0.447L6.95,9.12c-0.6-0.599-0.601-1.57-0.002-2.169c0.598-0.6,1.569-0.601,2.169-0.002l6.133,6.121
		c0.6,0.599,0.6,1.568,0.002,2.168C14.952,15.538,14.561,15.688,14.167,15.688z"/>
</g>
</svg>
